<mxfile host="app.diagrams.net" agent="Mozilla/5.0 (Windows NT 10.0; Win64; x64) AppleWebKit/537.36 (KHTML, like Gecko) Chrome/131.0.0.0 Safari/537.36" version="24.8.4">
  <diagram name="Страница — 1" id="FQ6hgkfwGDTkYDYRLGk1">
    <mxGraphModel dx="1222" dy="1066" grid="1" gridSize="10" guides="1" tooltips="1" connect="1" arrows="1" fold="1" page="1" pageScale="1" pageWidth="827" pageHeight="1169" math="0" shadow="0">
      <root>
        <mxCell id="0" />
        <mxCell id="1" parent="0" />
        <mxCell id="0bwdmbbTxajSf_CL3VcP-2" style="rounded=0;orthogonalLoop=1;jettySize=auto;html=1;dashed=1;dashPattern=8 8;endArrow=none;endFill=0;" edge="1" parent="1" source="0bwdmbbTxajSf_CL3VcP-15">
          <mxGeometry relative="1" as="geometry">
            <mxPoint x="1055" y="800" as="targetPoint" />
          </mxGeometry>
        </mxCell>
        <mxCell id="0bwdmbbTxajSf_CL3VcP-1" value="Клиент" style="shape=umlActor;verticalLabelPosition=bottom;verticalAlign=top;html=1;outlineConnect=0;" vertex="1" parent="1">
          <mxGeometry x="1040" y="240" width="40" height="80" as="geometry" />
        </mxCell>
        <mxCell id="0bwdmbbTxajSf_CL3VcP-4" style="rounded=0;orthogonalLoop=1;jettySize=auto;html=1;dashed=1;dashPattern=8 8;endArrow=none;endFill=0;" edge="1" parent="1" source="0bwdmbbTxajSf_CL3VcP-3">
          <mxGeometry relative="1" as="geometry">
            <mxPoint x="1181" y="800" as="targetPoint" />
          </mxGeometry>
        </mxCell>
        <mxCell id="0bwdmbbTxajSf_CL3VcP-3" value="Сайт магазина" style="rounded=0;whiteSpace=wrap;html=1;" vertex="1" parent="1">
          <mxGeometry x="1121" y="280" width="120" height="40" as="geometry" />
        </mxCell>
        <mxCell id="0bwdmbbTxajSf_CL3VcP-5" value="Окно авторизации" style="rounded=0;whiteSpace=wrap;html=1;" vertex="1" parent="1">
          <mxGeometry x="1280" y="280" width="120" height="40" as="geometry" />
        </mxCell>
        <mxCell id="0bwdmbbTxajSf_CL3VcP-6" value="Каталог" style="rounded=0;whiteSpace=wrap;html=1;" vertex="1" parent="1">
          <mxGeometry x="1440" y="280" width="120" height="40" as="geometry" />
        </mxCell>
        <mxCell id="0bwdmbbTxajSf_CL3VcP-8" value="Корзина" style="rounded=0;whiteSpace=wrap;html=1;" vertex="1" parent="1">
          <mxGeometry x="1600" y="280" width="120" height="40" as="geometry" />
        </mxCell>
        <mxCell id="0bwdmbbTxajSf_CL3VcP-10" value="Продавец" style="shape=umlActor;verticalLabelPosition=bottom;verticalAlign=top;html=1;outlineConnect=0;" vertex="1" parent="1">
          <mxGeometry x="1800" y="240" width="40" height="80" as="geometry" />
        </mxCell>
        <mxCell id="0bwdmbbTxajSf_CL3VcP-11" style="rounded=0;orthogonalLoop=1;jettySize=auto;html=1;dashed=1;dashPattern=8 8;endArrow=none;endFill=0;exitX=0.5;exitY=1;exitDx=0;exitDy=0;" edge="1" parent="1" source="0bwdmbbTxajSf_CL3VcP-17">
          <mxGeometry relative="1" as="geometry">
            <mxPoint x="1340" y="800" as="targetPoint" />
            <mxPoint x="1350" y="360" as="sourcePoint" />
          </mxGeometry>
        </mxCell>
        <mxCell id="0bwdmbbTxajSf_CL3VcP-12" style="rounded=0;orthogonalLoop=1;jettySize=auto;html=1;dashed=1;dashPattern=8 8;endArrow=none;endFill=0;exitX=0.5;exitY=1;exitDx=0;exitDy=0;" edge="1" parent="1" source="0bwdmbbTxajSf_CL3VcP-32">
          <mxGeometry relative="1" as="geometry">
            <mxPoint x="1500" y="800" as="targetPoint" />
            <mxPoint x="1499.58" y="330" as="sourcePoint" />
          </mxGeometry>
        </mxCell>
        <mxCell id="0bwdmbbTxajSf_CL3VcP-13" style="rounded=0;orthogonalLoop=1;jettySize=auto;html=1;dashed=1;dashPattern=8 8;endArrow=none;endFill=0;exitX=0.5;exitY=1;exitDx=0;exitDy=0;" edge="1" parent="1" source="0bwdmbbTxajSf_CL3VcP-39">
          <mxGeometry relative="1" as="geometry">
            <mxPoint x="1659.58" y="800" as="targetPoint" />
            <mxPoint x="1670" y="330" as="sourcePoint" />
          </mxGeometry>
        </mxCell>
        <mxCell id="0bwdmbbTxajSf_CL3VcP-14" style="rounded=0;orthogonalLoop=1;jettySize=auto;html=1;dashed=1;dashPattern=8 8;endArrow=none;endFill=0;" edge="1" parent="1" source="0bwdmbbTxajSf_CL3VcP-36">
          <mxGeometry relative="1" as="geometry">
            <mxPoint x="1819.58" y="800" as="targetPoint" />
            <mxPoint x="1850" y="370" as="sourcePoint" />
          </mxGeometry>
        </mxCell>
        <mxCell id="0bwdmbbTxajSf_CL3VcP-16" value="" style="rounded=0;orthogonalLoop=1;jettySize=auto;html=1;dashed=1;dashPattern=8 8;endArrow=none;endFill=0;" edge="1" parent="1" source="0bwdmbbTxajSf_CL3VcP-1" target="0bwdmbbTxajSf_CL3VcP-15">
          <mxGeometry relative="1" as="geometry">
            <mxPoint x="1055" y="800" as="targetPoint" />
            <mxPoint x="1060" y="320" as="sourcePoint" />
          </mxGeometry>
        </mxCell>
        <mxCell id="0bwdmbbTxajSf_CL3VcP-20" style="rounded=0;orthogonalLoop=1;jettySize=auto;html=1;exitX=1.061;exitY=0.279;exitDx=0;exitDy=0;entryX=0;entryY=0.25;entryDx=0;entryDy=0;exitPerimeter=0;" edge="1" parent="1" source="0bwdmbbTxajSf_CL3VcP-15" target="0bwdmbbTxajSf_CL3VcP-17">
          <mxGeometry relative="1" as="geometry">
            <mxPoint x="1320" y="370" as="targetPoint" />
          </mxGeometry>
        </mxCell>
        <mxCell id="0bwdmbbTxajSf_CL3VcP-15" value="" style="rounded=0;whiteSpace=wrap;html=1;" vertex="1" parent="1">
          <mxGeometry x="1055" y="360" width="10" height="70" as="geometry" />
        </mxCell>
        <mxCell id="0bwdmbbTxajSf_CL3VcP-18" value="" style="rounded=0;orthogonalLoop=1;jettySize=auto;html=1;dashed=1;dashPattern=8 8;endArrow=none;endFill=0;exitX=0.5;exitY=1;exitDx=0;exitDy=0;" edge="1" parent="1" source="0bwdmbbTxajSf_CL3VcP-5" target="0bwdmbbTxajSf_CL3VcP-17">
          <mxGeometry relative="1" as="geometry">
            <mxPoint x="1340" y="800" as="targetPoint" />
            <mxPoint x="1340" y="320" as="sourcePoint" />
          </mxGeometry>
        </mxCell>
        <mxCell id="0bwdmbbTxajSf_CL3VcP-21" style="rounded=0;orthogonalLoop=1;jettySize=auto;html=1;exitX=-0.079;exitY=0.804;exitDx=0;exitDy=0;dashed=1;dashPattern=8 8;entryX=1.134;entryY=0.801;entryDx=0;entryDy=0;exitPerimeter=0;entryPerimeter=0;" edge="1" parent="1" source="0bwdmbbTxajSf_CL3VcP-17" target="0bwdmbbTxajSf_CL3VcP-15">
          <mxGeometry relative="1" as="geometry">
            <mxPoint x="1070" y="413" as="targetPoint" />
          </mxGeometry>
        </mxCell>
        <mxCell id="0bwdmbbTxajSf_CL3VcP-26" style="edgeStyle=orthogonalEdgeStyle;rounded=0;orthogonalLoop=1;jettySize=auto;html=1;exitX=1;exitY=0.25;exitDx=0;exitDy=0;entryX=1;entryY=0.75;entryDx=0;entryDy=0;" edge="1" parent="1" source="0bwdmbbTxajSf_CL3VcP-17" target="0bwdmbbTxajSf_CL3VcP-23">
          <mxGeometry relative="1" as="geometry">
            <Array as="points">
              <mxPoint x="1380" y="379" />
              <mxPoint x="1380" y="416" />
              <mxPoint x="1355" y="416" />
            </Array>
          </mxGeometry>
        </mxCell>
        <mxCell id="0bwdmbbTxajSf_CL3VcP-17" value="" style="rounded=0;whiteSpace=wrap;html=1;" vertex="1" parent="1">
          <mxGeometry x="1330" y="362.5" width="20" height="67.5" as="geometry" />
        </mxCell>
        <mxCell id="0bwdmbbTxajSf_CL3VcP-19" value="" style="rounded=0;whiteSpace=wrap;html=1;" vertex="1" parent="1">
          <mxGeometry x="1335" y="450" width="10" height="60" as="geometry" />
        </mxCell>
        <mxCell id="0bwdmbbTxajSf_CL3VcP-23" value="" style="rounded=0;whiteSpace=wrap;html=1;" vertex="1" parent="1">
          <mxGeometry x="1340" y="397.5" width="15" height="25" as="geometry" />
        </mxCell>
        <mxCell id="0bwdmbbTxajSf_CL3VcP-24" value="Ввод пароля и Логина" style="text;html=1;align=center;verticalAlign=middle;whiteSpace=wrap;rounded=0;" vertex="1" parent="1">
          <mxGeometry x="1130" y="350" width="140" height="30" as="geometry" />
        </mxCell>
        <mxCell id="0bwdmbbTxajSf_CL3VcP-25" value="Сообщение об ошибки" style="text;html=1;align=center;verticalAlign=middle;whiteSpace=wrap;rounded=0;" vertex="1" parent="1">
          <mxGeometry x="1130" y="387.5" width="130" height="30" as="geometry" />
        </mxCell>
        <mxCell id="0bwdmbbTxajSf_CL3VcP-27" value="Логин/Пароль введены неверно" style="text;html=1;align=center;verticalAlign=middle;whiteSpace=wrap;rounded=0;" vertex="1" parent="1">
          <mxGeometry x="1380" y="372.5" width="60" height="50" as="geometry" />
        </mxCell>
        <mxCell id="0bwdmbbTxajSf_CL3VcP-31" style="edgeStyle=orthogonalEdgeStyle;rounded=0;orthogonalLoop=1;jettySize=auto;html=1;exitX=1;exitY=0.75;exitDx=0;exitDy=0;entryX=0.5;entryY=0.313;entryDx=0;entryDy=0;entryPerimeter=0;" edge="1" parent="1" source="0bwdmbbTxajSf_CL3VcP-29" target="0bwdmbbTxajSf_CL3VcP-32">
          <mxGeometry relative="1" as="geometry">
            <mxPoint x="1490" y="535" as="targetPoint" />
          </mxGeometry>
        </mxCell>
        <mxCell id="0bwdmbbTxajSf_CL3VcP-29" value="" style="rounded=0;whiteSpace=wrap;html=1;" vertex="1" parent="1">
          <mxGeometry x="1176" y="460" width="10" height="100" as="geometry" />
        </mxCell>
        <mxCell id="0bwdmbbTxajSf_CL3VcP-30" style="edgeStyle=orthogonalEdgeStyle;rounded=0;orthogonalLoop=1;jettySize=auto;html=1;exitX=0;exitY=0.5;exitDx=0;exitDy=0;entryX=1.4;entryY=0.198;entryDx=0;entryDy=0;entryPerimeter=0;" edge="1" parent="1" source="0bwdmbbTxajSf_CL3VcP-19" target="0bwdmbbTxajSf_CL3VcP-29">
          <mxGeometry relative="1" as="geometry" />
        </mxCell>
        <mxCell id="0bwdmbbTxajSf_CL3VcP-33" value="" style="rounded=0;orthogonalLoop=1;jettySize=auto;html=1;dashed=1;dashPattern=8 8;endArrow=none;endFill=0;exitX=0.5;exitY=1;exitDx=0;exitDy=0;" edge="1" parent="1" source="0bwdmbbTxajSf_CL3VcP-6" target="0bwdmbbTxajSf_CL3VcP-32">
          <mxGeometry relative="1" as="geometry">
            <mxPoint x="1500" y="800" as="targetPoint" />
            <mxPoint x="1500" y="320" as="sourcePoint" />
          </mxGeometry>
        </mxCell>
        <mxCell id="0bwdmbbTxajSf_CL3VcP-32" value="" style="rounded=0;whiteSpace=wrap;html=1;" vertex="1" parent="1">
          <mxGeometry x="1495" y="510" width="10" height="80" as="geometry" />
        </mxCell>
        <mxCell id="0bwdmbbTxajSf_CL3VcP-38" style="edgeStyle=orthogonalEdgeStyle;rounded=0;orthogonalLoop=1;jettySize=auto;html=1;entryX=0.033;entryY=0.191;entryDx=0;entryDy=0;exitX=0.933;exitY=0.723;exitDx=0;exitDy=0;exitPerimeter=0;entryPerimeter=0;" edge="1" parent="1" source="0bwdmbbTxajSf_CL3VcP-34" target="0bwdmbbTxajSf_CL3VcP-36">
          <mxGeometry relative="1" as="geometry">
            <mxPoint x="1670" y="610" as="sourcePoint" />
          </mxGeometry>
        </mxCell>
        <mxCell id="0bwdmbbTxajSf_CL3VcP-35" style="edgeStyle=orthogonalEdgeStyle;rounded=0;orthogonalLoop=1;jettySize=auto;html=1;exitX=1;exitY=0.75;exitDx=0;exitDy=0;entryX=0.014;entryY=0.211;entryDx=0;entryDy=0;entryPerimeter=0;" edge="1" parent="1" source="0bwdmbbTxajSf_CL3VcP-32" target="0bwdmbbTxajSf_CL3VcP-34">
          <mxGeometry relative="1" as="geometry" />
        </mxCell>
        <mxCell id="0bwdmbbTxajSf_CL3VcP-37" value="" style="rounded=0;orthogonalLoop=1;jettySize=auto;html=1;dashed=1;dashPattern=8 8;endArrow=none;endFill=0;" edge="1" parent="1" source="0bwdmbbTxajSf_CL3VcP-10" target="0bwdmbbTxajSf_CL3VcP-36">
          <mxGeometry relative="1" as="geometry">
            <mxPoint x="1819.58" y="800" as="targetPoint" />
            <mxPoint x="1820" y="320" as="sourcePoint" />
          </mxGeometry>
        </mxCell>
        <mxCell id="0bwdmbbTxajSf_CL3VcP-41" style="edgeStyle=orthogonalEdgeStyle;rounded=0;orthogonalLoop=1;jettySize=auto;html=1;exitX=-0.067;exitY=0.818;exitDx=0;exitDy=0;entryX=0.967;entryY=0.125;entryDx=0;entryDy=0;exitPerimeter=0;entryPerimeter=0;" edge="1" parent="1" source="0bwdmbbTxajSf_CL3VcP-36" target="0bwdmbbTxajSf_CL3VcP-39">
          <mxGeometry relative="1" as="geometry" />
        </mxCell>
        <mxCell id="0bwdmbbTxajSf_CL3VcP-36" value="" style="rounded=0;whiteSpace=wrap;html=1;" vertex="1" parent="1">
          <mxGeometry x="1815" y="590" width="10" height="110" as="geometry" />
        </mxCell>
        <mxCell id="0bwdmbbTxajSf_CL3VcP-40" value="" style="rounded=0;orthogonalLoop=1;jettySize=auto;html=1;dashed=1;dashPattern=8 8;endArrow=none;endFill=0;exitX=0.5;exitY=1;exitDx=0;exitDy=0;" edge="1" parent="1" source="0bwdmbbTxajSf_CL3VcP-8" target="0bwdmbbTxajSf_CL3VcP-39">
          <mxGeometry relative="1" as="geometry">
            <mxPoint x="1659.58" y="800" as="targetPoint" />
            <mxPoint x="1660" y="320" as="sourcePoint" />
          </mxGeometry>
        </mxCell>
        <mxCell id="0bwdmbbTxajSf_CL3VcP-39" value="" style="rounded=0;whiteSpace=wrap;html=1;" vertex="1" parent="1">
          <mxGeometry x="1655" y="670" width="10" height="80" as="geometry" />
        </mxCell>
        <mxCell id="0bwdmbbTxajSf_CL3VcP-34" value="" style="rounded=0;whiteSpace=wrap;html=1;" vertex="1" parent="1">
          <mxGeometry x="1654" y="552.5" width="10" height="80" as="geometry" />
        </mxCell>
        <mxCell id="0bwdmbbTxajSf_CL3VcP-42" value="Логин&amp;nbsp; и пароль введены верно" style="text;html=1;align=center;verticalAlign=middle;whiteSpace=wrap;rounded=0;" vertex="1" parent="1">
          <mxGeometry x="1210" y="450" width="100" height="30" as="geometry" />
        </mxCell>
        <mxCell id="0bwdmbbTxajSf_CL3VcP-43" value="Просмотр каталога" style="text;html=1;align=center;verticalAlign=middle;whiteSpace=wrap;rounded=0;" vertex="1" parent="1">
          <mxGeometry x="1280" y="510" width="120" height="30" as="geometry" />
        </mxCell>
        <mxCell id="0bwdmbbTxajSf_CL3VcP-44" value="Добавление товара в корзину" style="text;html=1;align=center;verticalAlign=middle;whiteSpace=wrap;rounded=0;" vertex="1" parent="1">
          <mxGeometry x="1530" y="535" width="100" height="30" as="geometry" />
        </mxCell>
        <mxCell id="0bwdmbbTxajSf_CL3VcP-45" value="Оформление товара" style="text;html=1;align=center;verticalAlign=middle;whiteSpace=wrap;rounded=0;" vertex="1" parent="1">
          <mxGeometry x="1680" y="577.5" width="120" height="30" as="geometry" />
        </mxCell>
        <mxCell id="0bwdmbbTxajSf_CL3VcP-46" value="Обновление статуса товара" style="text;html=1;align=center;verticalAlign=middle;whiteSpace=wrap;rounded=0;" vertex="1" parent="1">
          <mxGeometry x="1690" y="645" width="100" height="30" as="geometry" />
        </mxCell>
      </root>
    </mxGraphModel>
  </diagram>
</mxfile>
